<?xml version="1.0" encoding="UTF-8"?>
<svg width="1618px" height="637px" viewBox="0 0 1618 637" version="1.1" xmlns="http://www.w3.org/2000/svg" xmlns:xlink="http://www.w3.org/1999/xlink">
    <title>Brand device and logotype_1</title>
    <defs>
        <polygon id="path-1" points="0 0 1055.21739 0 1055.21739 636.995492 0 636.995492"></polygon>
    </defs>
    <g id="Page-1-Copy" stroke="none" stroke-width="1" fill="none" fill-rule="evenodd">
        <g id="Skanska-Brand-Hub---Startpage---Desktop/Large" transform="translate(-913.000000, -4942.000000)">
            <g id="Brand-device-and-logotype_1" transform="translate(913.000000, 4942.000000)">
                <polygon id="frame" fill="#FFFFFF" points="0 637 1618 637 1618 0 0 0"></polygon>
                <path d="M57.4918183,365.435583 L57.4918183,340.787583 L84.3238183,340.787583 L84.3238183,365.435583 L91.8898183,365.435583 L91.8898183,311.615583 L84.3238183,311.615583 L84.3238183,334.001583 L57.4918183,334.001583 L57.4918183,311.615583 L49.9258183,311.615583 L49.9258183,365.435583 L57.4918183,365.435583 Z M116.927818,366.605583 C124.805818,366.605583 131.435818,362.705583 134.087818,354.047583 L126.599818,354.047583 C125.195818,357.401583 122.153818,360.131583 116.927818,360.131583 C110.531818,360.131583 106.163818,355.607583 105.461818,348.353583 L134.555818,348.353583 C134.711818,347.417583 134.711818,346.247583 134.711818,345.233583 C134.711818,334.469583 127.457818,326.357583 116.771818,326.357583 C105.851818,326.357583 98.4418183,335.327583 98.4418183,346.481583 C98.4418183,358.181583 106.241818,366.605583 116.927818,366.605583 Z M127.535818,342.269583 L105.773818,342.269583 C107.021818,336.497583 110.999818,332.675583 116.693818,332.675583 C122.465818,332.675583 126.443818,336.185583 127.535818,342.269583 Z M156.941818,366.449583 C162.167818,366.449583 166.613818,364.265583 169.577818,360.131583 L170.201818,365.435583 L176.363818,365.435583 L176.363818,327.527583 L170.201818,327.527583 L169.577818,332.831583 C166.613818,328.697583 162.167818,326.513583 157.019818,326.513583 C146.489818,326.513583 139.001818,335.171583 139.001818,346.481583 C139.001818,357.791583 146.489818,366.449583 156.941818,366.449583 Z M157.799818,359.819583 C150.935818,359.819583 146.099818,354.125583 146.099818,346.481583 C146.099818,338.837583 150.857818,333.143583 157.721818,333.143583 C164.663818,333.143583 169.499818,338.837583 169.499818,346.481583 C169.499818,354.125583 164.663818,359.819583 157.799818,359.819583 Z M200.309818,366.449583 C205.535818,366.449583 209.981818,364.265583 212.945818,360.131583 L213.569818,365.435583 L219.731818,365.435583 L219.731818,311.615583 L212.633818,311.615583 L212.633818,332.441583 C209.669818,328.541583 205.379818,326.513583 200.387818,326.513583 C189.857818,326.513583 182.369818,335.171583 182.369818,346.481583 C182.369818,357.791583 189.857818,366.449583 200.309818,366.449583 Z M201.167818,359.819583 C194.303818,359.819583 189.467818,354.125583 189.467818,346.481583 C189.467818,338.837583 194.225818,333.143583 201.089818,333.143583 C208.031818,333.143583 212.867818,338.837583 212.867818,346.481583 C212.867818,354.125583 208.031818,359.819583 201.167818,359.819583 Z M235.253818,365.435583 L235.253818,311.615583 L228.155818,311.615583 L228.155818,365.435583 L235.253818,365.435583 Z M247.343818,322.535583 C249.917818,322.535583 252.023818,320.429583 252.023818,317.933583 C252.023818,315.515583 249.917818,313.409583 247.343818,313.409583 C244.691818,313.409583 242.585818,315.515583 242.585818,317.933583 C242.585818,320.429583 244.691818,322.535583 247.343818,322.535583 Z M250.853818,365.435583 L250.853818,327.527583 L243.755818,327.527583 L243.755818,365.435583 L250.853818,365.435583 Z M266.453818,365.435583 L266.453818,342.659583 C266.453818,337.433583 270.743818,333.143583 275.969818,333.143583 C281.195818,333.143583 285.485818,337.433583 285.485818,342.659583 L285.485818,365.435583 L292.661818,365.435583 L292.661818,341.255583 C292.661818,333.143583 286.031818,326.513583 277.919818,326.513583 C273.161818,326.513583 268.871818,328.853583 266.219818,332.441583 L265.595818,327.527583 L259.355818,327.527583 L259.355818,365.435583 L266.453818,365.435583 Z M316.841818,366.605583 C324.719818,366.605583 331.349818,362.705583 334.001818,354.047583 L326.513818,354.047583 C325.109818,357.401583 322.067818,360.131583 316.841818,360.131583 C310.445818,360.131583 306.077818,355.607583 305.375818,348.353583 L334.469818,348.353583 C334.625818,347.417583 334.625818,346.247583 334.625818,345.233583 C334.625818,334.469583 327.371818,326.357583 316.685818,326.357583 C305.765818,326.357583 298.355818,335.327583 298.355818,346.481583 C298.355818,358.181583 306.155818,366.605583 316.841818,366.605583 Z M327.449818,342.269583 L305.687818,342.269583 C306.935818,336.497583 310.913818,332.675583 316.607818,332.675583 C322.379818,332.675583 326.357818,336.185583 327.449818,342.269583 Z M56.4778183,449.311837 L56.4778183,395.491837 L49.3798183,395.491837 L49.3798183,449.311837 L56.4778183,449.311837 Z M81.2038183,450.481837 C92.2018183,450.481837 100.157818,441.667837 100.157818,430.357837 C100.157818,419.047837 92.2018183,410.233837 81.2818183,410.233837 C70.2838183,410.233837 62.4838183,419.047837 62.4838183,430.357837 C62.4838183,441.667837 70.2838183,450.481837 81.2038183,450.481837 Z M81.2818183,443.851837 C74.3398183,443.851837 69.5818183,438.001837 69.5818183,430.357837 C69.5818183,422.713837 74.2618183,416.863837 81.2038183,416.863837 C88.1458183,416.863837 92.9818183,422.713837 92.9818183,430.357837 C92.9818183,438.001837 88.1458183,443.851837 81.2818183,443.851837 Z M113.261818,449.311837 L113.261818,426.691837 C113.261818,422.713837 116.615818,418.033837 121.919818,418.033837 L126.521818,418.033837 L126.521818,411.403837 L121.607818,411.403837 C117.863818,411.403837 114.977818,413.665837 112.949818,416.317837 L112.403818,411.403837 L106.163818,411.403837 L106.163818,449.311837 L113.261818,449.311837 Z M145.865818,450.481837 C153.743818,450.481837 160.373818,446.581837 163.025818,437.923837 L155.537818,437.923837 C154.133818,441.277837 151.091818,444.007837 145.865818,444.007837 C139.469818,444.007837 135.101818,439.483837 134.399818,432.229837 L163.493818,432.229837 C163.649818,431.293837 163.649818,430.123837 163.649818,429.109837 C163.649818,418.345837 156.395818,410.233837 145.709818,410.233837 C134.789818,410.233837 127.379818,419.203837 127.379818,430.357837 C127.379818,442.057837 135.179818,450.481837 145.865818,450.481837 Z M156.473818,426.145837 L134.711818,426.145837 C135.959818,420.373837 139.937818,416.551837 145.631818,416.551837 C151.403818,416.551837 155.381818,420.061837 156.473818,426.145837 Z M176.831818,449.311837 L176.831818,425.755837 C176.831818,420.919837 180.809818,417.019837 185.645818,417.019837 C190.481818,417.019837 194.381818,420.919837 194.381818,425.755837 L194.381818,449.311837 L201.557818,449.311837 L201.557818,425.755837 C201.557818,420.919837 205.457818,417.019837 210.293818,417.019837 C215.129818,417.019837 219.029818,420.919837 219.029818,425.755837 L219.029818,449.311837 L226.205818,449.311837 L226.205818,424.351837 C226.205818,416.707837 219.653818,410.389837 212.009818,410.389837 C206.627818,410.389837 202.415818,413.197837 199.607818,417.331837 C197.189818,413.197837 192.665818,410.389837 187.595818,410.389837 C183.227818,410.389837 179.171818,412.495837 176.519818,416.005837 L175.973818,411.403837 L169.733818,411.403837 L169.733818,449.311837 L176.831818,449.311837 Z M252.413818,406.411837 C254.987818,406.411837 257.093818,404.305837 257.093818,401.809837 C257.093818,399.391837 254.987818,397.285837 252.413818,397.285837 C249.761818,397.285837 247.655818,399.391837 247.655818,401.809837 C247.655818,404.305837 249.761818,406.411837 252.413818,406.411837 Z M255.923818,449.311837 L255.923818,411.403837 L248.825818,411.403837 L248.825818,449.311837 L255.923818,449.311837 Z M271.523818,463.351837 L271.523818,444.397837 C274.487818,448.219837 278.855818,450.325837 283.847818,450.325837 C294.377818,450.325837 301.865818,441.667837 301.865818,430.357837 C301.865818,419.047837 294.377818,410.389837 283.847818,410.389837 C278.699818,410.389837 274.253818,412.573837 271.289818,416.629837 L270.665818,411.403837 L264.425818,411.403837 L264.425818,463.351837 L271.523818,463.351837 Z M283.145818,443.695837 C276.203818,443.695837 271.367818,438.001837 271.367818,430.357837 C271.367818,422.713837 276.203818,417.019837 283.067818,417.019837 C289.931818,417.019837 294.767818,422.713837 294.767818,430.357837 C294.767818,438.001837 290.009818,443.695837 283.145818,443.695837 Z M321.287818,450.403837 C330.725818,450.403837 336.731818,445.099837 336.731818,438.235837 C336.731818,431.137837 332.207818,427.939837 325.109818,426.847837 L319.025818,425.911837 C315.125818,425.287837 312.395818,424.195837 312.395818,421.309837 C312.395818,418.345837 315.047818,416.239837 319.883818,416.239837 C324.329818,416.239837 327.371818,417.877837 328.541818,420.841837 L335.873818,420.841837 C334.547818,414.523837 328.931818,410.155837 320.039818,410.155837 C310.757818,410.155837 305.375818,415.459837 305.375818,421.699837 C305.375818,428.017837 309.665818,431.137837 316.997818,432.307837 L323.003818,433.243837 C327.449818,433.945837 329.633818,435.349837 329.633818,438.625837 C329.633818,441.823837 327.059818,444.319837 321.365818,444.319837 C315.905818,444.319837 312.707818,442.213837 311.771818,438.859837 L304.361818,438.859837 C305.297818,445.645837 311.069818,450.403837 321.287818,450.403837 Z M356.777818,450.325837 C361.457818,450.325837 365.591818,447.985837 368.243818,444.397837 L368.789818,449.311837 L375.029818,449.311837 L375.029818,411.403837 L367.931818,411.403837 L367.931818,434.413837 C367.931818,439.483837 363.719818,443.617837 358.649818,443.617837 C353.579818,443.617837 349.367818,439.483837 349.367818,434.413837 L349.367818,411.403837 L342.191818,411.403837 L342.191818,435.739837 C342.191818,443.773837 348.431818,450.325837 356.777818,450.325837 Z M390.551818,449.311837 L390.551818,425.755837 C390.551818,420.919837 394.529818,417.019837 399.365818,417.019837 C404.201818,417.019837 408.101818,420.919837 408.101818,425.755837 L408.101818,449.311837 L415.277818,449.311837 L415.277818,425.755837 C415.277818,420.919837 419.177818,417.019837 424.013818,417.019837 C428.849818,417.019837 432.749818,420.919837 432.749818,425.755837 L432.749818,449.311837 L439.925818,449.311837 L439.925818,424.351837 C439.925818,416.707837 433.373818,410.389837 425.729818,410.389837 C420.347818,410.389837 416.135818,413.197837 413.327818,417.331837 C410.909818,413.197837 406.385818,410.389837 401.315818,410.389837 C396.947818,410.389837 392.891818,412.495837 390.239818,416.005837 L389.693818,411.403837 L383.453818,411.403837 L383.453818,449.311837 L390.551818,449.311837 Z" id="Headlineloremipsum" fill="#143275" fill-rule="nonzero"></path>
                <g id="Group-4" transform="translate(562.782609, 0.004508)">
                    <mask id="mask-2" fill="white">
                        <use xlink:href="#path-1"></use>
                    </mask>
                    <use id="Clip-3" fill="#ECECEC" xlink:href="#path-1"></use>
                    <path d="M1114.59601,-265.789577 L1360.7875,-265.789577 L1013.76081,179.315134 L1360.7875,637.511315 L1105.42894,637.511315 L821.261446,260.481194 L821.261446,637.511315 L611.736942,637.511315 L611.736942,-265.789577 L821.261446,-265.789577 L821.261446,112.549163 L1114.59601,-265.789577 Z M212.072468,90.2934 C386.239002,90.2934 493.620607,188.478108 493.620607,361.284459 C493.620607,534.088172 386.239002,637.511315 212.072468,637.511315 L-239.715155,637.511315 L-239.715155,446.376377 L209.453115,446.376377 C268.382624,446.376377 298.500567,404.484728 298.500567,361.284459 C298.500567,318.081552 268.382624,276.189903 209.453115,276.189903 L5.16731748,276.189903 C-169.000536,276.189903 -276.380822,175.387956 -276.380822,7.82003982 C-276.380822,-163.677692 -169.000536,-265.789577 5.16731748,-265.789577 L430.764048,-265.789577 L430.764048,-74.6559587 L7.78667068,-74.6559587 C-51.1428382,-74.6559587 -81.2621011,-34.0729287 -81.2621011,7.82003982 C-81.2621011,49.7116892 -51.1428382,90.2934 7.78667068,90.2934 L212.072468,90.2934 Z" id="Fill-2" fill="#143275" mask="url(#mask-2)"></path>
                </g>
                <path d="M194.073707,62.4951453 L199.917383,62.4951453 L196.978017,53.5462783 L194.073707,62.4951453 Z M203.060348,72.0937117 L201.488192,67.2775795 L192.536607,67.2775795 L190.96445,72.0937117 L185.259652,72.0937117 L193.527632,48.5252617 L200.463458,48.5252617 L208.731438,72.0937117 L203.060348,72.0937117 Z M178.493715,48.5252617 L184.917175,48.5252617 L175.863117,60.1376264 L184.917175,72.0937117 L178.25506,72.0937117 L170.840575,62.2565628 L170.840575,72.0937117 L165.374432,72.0937117 L165.374432,48.5252617 L170.840575,48.5252617 L170.840575,58.3961087 L178.493715,48.5252617 Z M154.951815,57.7814553 C159.497047,57.7814553 162.298883,60.3425108 162.298883,64.8863624 C162.298883,69.395168 159.497047,72.0937117 154.951815,72.0937117 L143.164685,72.0937117 L143.164685,67.1063931 L154.885747,67.1063931 C156.421498,67.1063931 157.207577,66.0132268 157.207577,64.8863624 C157.207577,63.7581501 156.421498,62.6649838 154.885747,62.6649838 L149.554437,62.6649838 C145.010553,62.6649838 142.208717,60.0351842 142.208717,55.6638668 C142.208717,51.1887594 145.010553,48.5252617 149.554437,48.5252617 L160.65931,48.5252617 L160.65931,53.5112323 L149.623202,53.5112323 C148.086102,53.5112323 147.300023,54.5707005 147.300023,55.6638668 C147.300023,56.7219871 148.086102,57.7814553 149.623202,57.7814553 L154.951815,57.7814553 Z M133.462078,63.2472869 L133.462078,48.5252617 L138.92957,48.5252617 L138.92957,72.0937117 L133.257132,72.0937117 L123.894305,57.3379884 L123.894305,72.0937117 L118.428162,72.0937117 L118.428162,48.5252617 L124.1006,48.5252617 L133.462078,63.2472869 Z M101.754672,62.4951453 L107.597,62.4951453 L104.658982,53.5462783 L101.754672,62.4951453 Z M101.208597,48.5252617 L108.144423,48.5252617 L116.412403,72.0937117 L110.739965,72.0937117 L109.169157,67.2775795 L100.217572,67.2775795 L98.645415,72.0937117 L92.9392683,72.0937117 L101.208597,48.5252617 Z M86.17468,48.5252617 L92.5967917,48.5252617 L83.5427333,60.1376264 L92.5967917,72.0937117 L85.936025,72.0937117 L78.52154,62.2565628 L78.52154,72.0937117 L73.0540483,72.0937117 L73.0540483,48.5252617 L78.52154,48.5252617 L78.52154,58.3961087 L86.17468,48.5252617 Z M62.6341283,57.8151534 C67.1780117,57.8151534 69.9798483,60.3775568 69.9798483,64.8863624 C69.9798483,69.395168 67.1780117,72.0937117 62.6341283,72.0937117 L50.8443017,72.0937117 L50.8443017,67.072695 L62.5653633,67.072695 C64.101115,67.072695 64.8871933,65.9781808 64.8871933,64.8863624 C64.8871933,63.7581501 64.101115,62.6649838 62.5653633,62.6649838 L57.2354017,62.6649838 C52.6915183,62.6649838 49.8883333,60.0351842 49.8883333,55.6638668 C49.8883333,51.1887594 52.6915183,48.5252617 57.2354017,48.5252617 L68.3389267,48.5252617 L68.3389267,53.5462783 L57.3028183,53.5462783 C55.7657183,53.5462783 54.97964,54.6043986 54.97964,55.6638668 C54.97964,56.7570331 55.7657183,57.8151534 57.3028183,57.8151534 L62.6341283,57.8151534 Z" id="Fill-1" fill="#143275"></path>
            </g>
        </g>
    </g>
</svg>