<?xml version="1.0" encoding="UTF-8"?>
<svg width="135px" height="20px" viewBox="0 0 135 20" version="1.1" xmlns="http://www.w3.org/2000/svg" xmlns:xlink="http://www.w3.org/1999/xlink">
    <title>LOGO</title>
    <g id="Desktop" stroke="none" stroke-width="1" fill="none" fill-rule="evenodd">
        <g id="Menu" transform="translate(-1735.000000, -21.000000)" fill="#143275">
            <path d="M1857.07902,21 L1850.05235,40.999986 L1854.90129,40.999986 L1856.2369,36.9130427 L1863.84431,36.9130427 L1865.18006,40.999986 L1870,40.999986 L1870,40.9995665 L1862.97333,21 L1857.07902,21 Z M1860.01175,25.2607517 L1862.50871,32.8550441 L1857.54351,32.8550441 L1860.01175,25.2607517 Z M1844.30317,21.000014 L1849.762,21.000014 L1842.06746,30.8550735 L1849.762,41 L1844.09993,41 L1837.79912,32.6521652 L1837.79912,41 L1833.15329,41 L1833.15329,21.000014 L1837.79912,21.000014 L1837.79912,29.3767936 L1844.30317,21.000014 Z M1824.29152,28.8840336 C1828.15321,28.8840336 1830.53419,31.0579664 1830.53419,34.8839875 C1830.53419,38.7101484 1828.15321,41 1824.29152,41 L1814.27399,41 L1814.27399,36.7680532 L1824.23338,36.7680532 C1825.53999,36.7680532 1826.20773,35.8405626 1826.20773,34.8839875 C1826.20773,33.9275521 1825.53999,32.9999217 1824.23338,32.9999217 L1819.70381,32.9999217 C1815.84198,32.9999217 1813.46086,30.7680994 1813.46086,27.0579972 C1813.46086,23.2609209 1815.84198,21.000014 1819.70381,21.000014 L1829.14045,21.000014 L1829.14045,25.2319607 L1819.76181,25.2319607 C1818.4552,25.2319607 1817.78732,26.1303668 1817.78732,27.0579972 C1817.78732,27.9854878 1818.4552,28.8840336 1819.76181,28.8840336 L1824.29152,28.8840336 Z M1806.0277,33.4926817 L1806.0277,21.000014 L1810.67353,21.000014 L1810.67353,41 L1805.85359,41 L1797.89767,28.4782477 L1797.89767,41 L1793.25184,41 L1793.25184,21.000014 L1798.07192,21.000014 L1806.0277,33.4926817 Z M1779.08238,32.8550581 L1784.04758,32.8550581 L1781.55034,25.2609055 L1779.08238,32.8550581 Z M1778.61776,21.000014 L1784.51207,21.000014 L1791.53887,41 L1786.71879,41 L1785.38319,36.9130567 L1777.77577,36.9130567 L1776.44017,41 L1771.59109,41 L1778.61776,21.000014 Z M1765.84189,21.000014 L1771.30071,21.000014 L1763.60617,30.8550735 L1771.30071,41 L1765.63865,41 L1759.33784,32.6521652 L1759.33784,41 L1754.69215,41 L1754.69215,21.000014 L1759.33784,21.000014 L1759.33784,29.3767936 L1765.84189,21.000014 Z M1745.83037,28.8840336 C1749.69221,28.8840336 1752.07319,31.0579664 1752.07319,34.8839875 C1752.07319,38.7101484 1749.69221,41 1745.83037,41 L1735.81299,41 L1735.81299,36.7680532 L1745.77238,36.7680532 C1747.07899,36.7680532 1747.74673,35.8405626 1747.74673,34.8839875 C1747.74673,33.9275521 1747.07899,32.9999217 1745.77238,32.9999217 L1741.24267,32.9999217 C1737.38098,32.9999217 1735,30.7680994 1735,27.0579972 C1735,23.2609209 1737.38098,21.000014 1741.24267,21.000014 L1750.67945,21.000014 L1750.67945,25.2319607 L1741.3008,25.2319607 C1739.9942,25.2319607 1739.32632,26.1303668 1739.32632,27.0579972 C1739.32632,27.9854878 1739.9942,28.8840336 1741.3008,28.8840336 L1745.83037,28.8840336 Z" id="LOGO"></path>
        </g>
    </g>
</svg>